<svg xmlns="http://www.w3.org/2000/svg" xmlns:xlink="http://www.w3.org/1999/xlink" width="36.195" height="38.611" viewBox="0 0 36.195 38.611"><defs><filter id="a" x="0" y="0" width="36.195" height="38.611" filterUnits="userSpaceOnUse"><feOffset dy="3" input="SourceAlpha"/><feGaussianBlur stdDeviation="3" result="b"/><feFlood flood-opacity="0.161"/><feComposite operator="in" in2="b"/><feComposite in="SourceGraphic"/></filter></defs><g transform="matrix(1, 0, 0, 1, 0, 0)" filter="url(#a)"><path d="M10.186,27.611a10.082,10.082,0,0,1-5.25-1.472h6.438a10.321,10.321,0,0,0,6.437-2A10.146,10.146,0,0,1,10.186,27.611ZM3.509,25.088h0a10.385,10.385,0,0,1,0-15.564Zm7.669-2.278H7.516V11.948h3.661a5.873,5.873,0,0,1,4.134,1.458,5.3,5.3,0,0,1,1.556,3.975,5.3,5.3,0,0,1-1.556,3.975A5.873,5.873,0,0,1,11.177,22.81ZM18.2,10.939a10.082,10.082,0,0,0-6.82-2.319H4.7a10.1,10.1,0,0,1,10.012-.548A10.31,10.31,0,0,1,18.2,10.938Z" transform="translate(9 -1)" fill="#fff"/></g></svg>